<?xml version="1.0" encoding="UTF-8" standalone="no"?>
<svg
   version="1.2"
   viewBox="0 0 769.71812 168.53502"
   width="769.71802"
   height="168.535"
   id="svg1"
   sodipodi:docname="jeldwen.svg"
   inkscape:version="1.3.2 (091e20e, 2023-11-25)"
   xmlns:inkscape="http://www.inkscape.org/namespaces/inkscape"
   xmlns:sodipodi="http://sodipodi.sourceforge.net/DTD/sodipodi-0.dtd"
   xmlns="http://www.w3.org/2000/svg"
   xmlns:svg="http://www.w3.org/2000/svg">
  <defs
     id="defs1" />
  <sodipodi:namedview
     id="namedview1"
     pagecolor="#ffffff"
     bordercolor="#000000"
     borderopacity="0.25"
     inkscape:showpageshadow="2"
     inkscape:pageopacity="0.0"
     inkscape:pagecheckerboard="0"
     inkscape:deskcolor="#d1d1d1"
     inkscape:zoom="0.39046392"
     inkscape:cx="370.07261"
     inkscape:cy="181.83498"
     inkscape:window-width="1672"
     inkscape:window-height="909"
     inkscape:window-x="0"
     inkscape:window-y="38"
     inkscape:window-maximized="0"
     inkscape:current-layer="svg1" />
  <g
     id="g1"
     transform="matrix(0.48270349,0,0,0.48270349,7.9935462,12.805281)">
    <path
       id="Layer"
       class="s0"
       d="m 946.3,57.7 c 0.8,0.4 1.2,1.2 0.8,2 l -1.2,2.3 c -0.4,0.8 -1.2,1.2 -2,0.8 -155.5,-60.8 -235.3,75.8 -236.1,77 -0.4,0.8 -1.2,1.2 -1.9,0.8 l -36.6,-15 c -0.4,-0.4 -0.8,-0.7 -0.8,-1.1 0,-0.4 0,-0.8 0.4,-1.2 105.3,-155.5 275.8,-66 277.4,-65.6 z" />
    <path
       id="path1"
       fill-rule="evenodd"
       class="s1"
       d="m 228.1,245 -15.3,46.7 h -2 L 199,255.6 187.6,291.7 h -1.9 L 170.8,245 c -2,-6.3 -3.6,-8.2 -11.4,-8.2 V 234 h 29.4 v 2.8 c -7.8,0 -9,1.5 -7.4,7 l 8.6,26.3 11.4,-36.1 h 2.4 l 11.7,36.1 8.7,-26.3 c 1.6,-5.1 0,-7 -6.7,-7 V 234 h 22 v 2.8 c -8.2,0 -9.4,1.5 -11.4,8.2 z m 44.4,45.2 v -2.8 c 7.9,0 9,-1.6 9,-11 v -29 c 0,-9.5 -1.1,-11 -9,-11 v -2.8 H 302 v 2.8 c -7.9,0 -9.1,1.5 -9.1,11 v 29 c 0,9.4 1.2,11 9.1,11 v 2.8 z m 121,-42.5 c 0,-9.4 -1.2,-10.9 -9.1,-10.9 V 234 h 22.4 v 2.8 c -7.8,0 -9,1.5 -9,10.9 v 44.4 h -2.4 l -38.9,-46.3 v 31 c 0,9.4 1.2,11 9.1,11 v 2.7 h -22 v -2.7 c 7.8,0 9,-1.6 9,-11 v -29.1 c 0,-9.4 -1.2,-10.9 -9,-10.9 V 234 h 18.8 l 31.5,37.3 v -23.6 z m 54.6,39.7 c 7.8,0 9,-1.6 9,-11 v -29 c 0,-9.5 -1.2,-11 -9,-11 v -2.8 h 31 c 21.6,0 31.5,12.6 31.5,28.3 0,15.3 -9.5,28.3 -31.5,28.3 h -31 z m 20.8,-12.2 c 0,9 1.2,10.6 9,10.6 h 0.8 c 15.4,0 18.5,-13.4 18.5,-24 0,-10.6 -3.1,-23.9 -18.5,-23.9 h -9.8 z m 114.7,16.5 c -17.4,0 -31.4,-13.4 -31.4,-29.9 0,-16.5 14,-29.8 31.4,-29.8 17.4,0 31.5,13.3 31.5,29.8 0,16.5 -14.1,29.9 -31.5,29.9 z m 0,-55 c -13.3,0 -18.8,13.7 -18.8,25.1 0,11.4 5.5,25.2 18.8,25.2 13.4,0 18.9,-13.8 18.9,-25.2 0,-11.4 -5.5,-25.1 -18.9,-25.1 z m 134.4,8.2 -15.3,46.8 h -2 l -11.8,-36.1 -11.4,36.1 h -1.9 l -15,-46.8 c -1.9,-6.2 -3.5,-8.2 -11.4,-8.2 V 234 h 29.5 v 2.7 c -7.9,0 -9,1.6 -7.5,7.1 l 8.7,26.3 11.4,-36.1 h 2.3 l 11.8,36.1 8.7,-26.3 c 1.5,-5.1 0,-7.1 -6.7,-7.1 V 234 h 22 v 2.7 c -8.3,0 -9.4,1.6 -11.4,8.2 z m 47.9,46.8 h -2.7 v -20.8 h 2.7 c 2,10.2 9.8,16.5 17.3,16.5 5.5,0 9.4,-3.2 9.4,-9.5 0,-3.5 -2.3,-7 -7,-9.4 l -9.1,-4.7 c -7.8,-3.9 -12.5,-8.6 -12.5,-17.7 0,-7.8 7,-14.1 16.5,-14.1 5.5,0 8.6,2 11.4,3.9 1.1,-0.8 2.3,-2.3 2.7,-4.3 h 2.8 v 20.8 h -2.8 c -0.8,-7.5 -3.5,-16.1 -13.4,-16.1 -3.9,0 -7.4,2.8 -7.4,7.5 0,2.7 2.3,7 7.4,9.4 l 9.1,4.7 c 6.7,3.5 12.2,9 12.2,16.5 0,10.2 -9.1,17.3 -18.5,17.3 -7.1,0 -11.8,-4 -14.5,-4.3 -2,0.7 -3.2,2.3 -3.6,4.3 z m 153.2,0 c -10.2,0 -19.2,-5.5 -19.2,-16.5 0,-7.1 5.1,-11.4 11,-14.9 -3.5,-5.1 -5.5,-10.2 -5.5,-14.6 0,-8.2 7.9,-13.3 17.3,-13.3 7.8,0 14.9,3.5 14.9,10.6 0,8.2 -8.6,11.4 -16.1,16.5 3.1,4.3 7.9,9.8 14.5,16.9 0.8,-1.2 1.2,-2.8 1.6,-4.4 1.6,-5.5 0,-7.4 -7.8,-7.4 v -2.8 h 22 v 2.8 c -6.7,0 -8.3,1.9 -11,9.8 -0.4,2 -1.2,3.5 -2,5.1 3.1,3.1 6.3,5.1 9,5.1 1.6,0 4,-0.8 6.3,-3.1 l 2,1.9 c -3.6,5.1 -7.1,8.7 -11.8,8.7 -3.5,0 -7.1,-2.4 -10.6,-5.1 -4.3,3.1 -9.1,4.7 -14.6,4.7 z m -4.7,-25.9 c -1.9,2.7 -3.1,5.8 -3.1,10.6 0,6.2 5.1,11.3 11,11.3 q 4.7,0 8.2,-3.5 c -6.2,-7.1 -11.7,-12.9 -16.1,-18.4 z M 928.2,243 c 0,-4.3 -2.8,-6.3 -5.9,-6.3 -3.9,0 -6.7,3.9 -6.7,7.5 0,4.3 0.8,7.8 2.8,11.4 5.5,-3.2 9.8,-6.7 9.8,-12.6 z m 123,44.4 c 7.8,0 9,-1.6 9,-11 v -29.1 c 0,-9.4 -1.2,-11 -9,-11 v -2.7 h 31 c 21.6,0 31.4,12.5 31.4,28.2 0,15.3 -9.4,28.3 -31.4,28.3 h -31 z m 20.4,-12.2 c 0,9.1 1.2,10.6 9,10.6 h 0.8 c 15.3,0 18.5,-13.3 18.5,-23.9 0,-10.6 -3.2,-24 -18.5,-24 h -9.8 z m 115.1,16.5 c -17.4,0 -31.4,-13.3 -31.4,-29.8 0,-16.5 14,-29.9 31.4,-29.9 17.4,0 31.4,13.4 31.4,29.9 0,16.5 -14,29.8 -31.4,29.8 z m 0,-54.9 c -13.4,0 -18.5,13.7 -18.5,25.1 0,11.4 5.5,25.1 18.5,25.1 13.4,0 18.9,-13.7 18.9,-25.1 0,-11.4 -5.5,-25.1 -18.9,-25.1 z m 110,54.9 c -17.4,0 -31.4,-13.3 -31.4,-29.8 0,-16.5 14,-29.9 31.4,-29.9 17.4,0 31.4,13.4 31.4,29.9 0,16.5 -14,29.8 -31.4,29.8 z m 0,-54.9 c -13.4,0 -18.9,13.7 -18.9,25.1 0,11.4 5.5,25.1 18.9,25.1 13.4,0 18.5,-13.7 18.5,-25.1 0.4,-11.4 -5.1,-25.1 -18.5,-25.1 z m 119,38.4 c 8.3,9.1 11.8,11.4 17.7,12.2 v 2.8 H 1413 l -16.9,-24.8 h -2.7 v 11 c 0,9.4 1.1,11 9,11 v 2.8 h -29.5 v -2.8 c 7.9,0 9.1,-1.6 9.1,-11 v -29 c 0,-9.5 -1.2,-11 -9.1,-11 v -2.8 h 31.5 c 11.7,0 18.8,7.1 18.8,15.7 0,8.3 -6.3,14.9 -16.5,15.7 z m -5.1,-25.5 c 0,-6.3 -3.9,-11.8 -12.2,-11.8 h -5.1 v 23.2 h 5.1 c 8.3,0 12.2,-5.1 12.2,-11.4 z m 63.6,42 h -2.7 v -20.8 h 2.7 c 2,10.2 9.9,16.5 17.3,16.5 5.5,0 9.5,-3.1 9.5,-9.4 0,-3.6 -2.4,-7.1 -7.1,-9.5 l -9,-4.7 c -7.9,-3.9 -12.6,-8.6 -12.6,-17.6 0,-7.9 7.1,-14.2 16.5,-14.2 5.5,0 8.6,2 11.4,4 1.2,-0.8 2.3,-2.4 2.7,-4.4 h 2.8 v 20.8 h -2.8 c -0.8,-7.4 -3.5,-16 -13.3,-16 -4,0 -7.5,2.7 -7.5,7.4 0,2.8 2.4,7.1 7.5,9.4 l 9,4.7 c 6.7,3.6 12.2,9.1 12.2,16.5 0,10.2 -9,17.3 -18.5,17.3 -7,0 -11.8,-3.9 -14.5,-4.3 -2,0.8 -2.8,2.3 -3.6,4.3 z M 80.3,235.6 V 47.9 C 80.3,14.9 76.4,9.4 48.9,9.4 V 0 h 104.5 v 9.4 c -27.5,0 -31.8,5.5 -31.8,38.5 v 171.2 c 0,49.1 -29.9,72.2 -67.6,72.2 -28.3,0 -53.4,-16.5 -53.4,-40.4 0,-7.5 5.5,-13.8 13.3,-13.8 7.9,0 13.4,6.3 13.4,13.8 0,11.4 7.4,25.9 25.5,25.9 17.7,0 27.5,-12.2 27.5,-41.2 z M 355.7,9.4 V 0 h 104.5 v 9.4 c -27.5,0 -31.8,5.5 -31.8,38.5 v 96.6 c 0,33 4.3,38.5 31.8,38.5 h 38.1 c 30.3,0 34.2,-7.5 38.1,-25.2 l 1.6,-6.6 h 9.4 l -2.7,46.7 H 355.3 v -9.4 c 27.5,0 31.5,-5.5 31.5,-38.5 V 48.3 C 387.2,14.9 383.2,9.4 355.7,9.4 Z M 560,188.5 c 27.5,0 31.4,-5.5 31.4,-38.5 V 48.3 C 591.4,15.3 587.5,9.8 560,9.8 V 0 h 108.8 c 76.7,0 110.1,44.4 110.1,98.9 0,54.6 -33.4,99 -110.1,99 H 560 Z m 72.7,-42.8 c 0,32.2 4.3,37.3 31.8,37.3 h 3.2 c 53.4,0 64.4,-46.7 64.4,-84 0,-37.3 -11,-84.1 -64.4,-84.1 h -35 z M 1490.8,48 c 0,-33 -4.4,-38.5 -31.9,-38.5 V 0.1 h 78.2 v 9.4 c -27.9,0 -31.8,5.5 -31.8,38.5 V 203.4 H 1497 L 1360.3,40.5 v 109.2 c 0,32.9 4.3,38.4 31.8,38.4 v 9.5 H 1314 v -9.1 c 27.5,0 31.4,-5.5 31.4,-38.4 V 48.4 c 0,-33 -3.9,-38.5 -31.4,-38.5 V 0.1 h 66 l 110.4,131.5 V 48 Z M 1111.6,0.1 v 9.8 c -19.2,1.6 -23.5,9.4 -29.4,28.6 l -53.5,164.9 h -7 L 980,75.8 939.5,203.4 h -7.4 L 879,38.5 C 871.6,15.8 867.3,9.5 839.4,9.5 V 0.1 h 104.5 v 9.8 c -27.5,0 -32.2,5.9 -26,25.1 l 30.3,92.7 40.5,-127.6 h 7.8 l 41.3,127.6 30.2,-93.1 c 5.9,-17.7 0.8,-25.1 -23.2,-25.1 V 0.1 Z m 189.8,151.5 -2.7,46.7 h -181.2 v -9.4 c 27.5,0 31.5,-5.5 31.5,-38.5 V 48.8 c 0,-29.1 -2.8,-37 -22,-38.5 V 0.5 h 161 l 2.8,46.7 h -9.4 l -1.6,-6.7 c -4.3,-17.7 -7.9,-25.1 -38.1,-25.1 H 1191 v 71 h 18.1 c 33,0 38.1,-4.3 38.1,-31.8 h 9.4 v 78.2 h -9.4 c 0,-27.9 -5.1,-31.8 -38.1,-31.8 H 1191 v 43.9 c 0,33 4.3,38.5 31.8,38.5 h 29.9 c 30.2,0 33.8,-7.4 38.1,-25.1 l 1.6,-6.7 z m -959.4,0 -2.8,46.7 H 158.1 v -9.4 c 27.5,0 31.4,-5.5 31.4,-38.5 V 48.8 c 0,-29.1 -2.7,-37 -22,-38.5 V 0.5 h 161.1 l 2.7,46.7 h -9.4 l -1.6,-6.7 C 315.6,22.8 312.1,15.4 281.8,15.4 h -50.6 v 71 h 18 c 33.4,0 38.5,-4.3 38.5,-31.8 h 9.5 v 78.2 h -9.5 c 0,-27.9 -5.5,-31.8 -38.5,-31.8 h -18 v 43.9 c 0,33 4.3,38.5 31.8,38.5 h 29.8 c 30.7,0 34.2,-7.4 38.5,-25.1 l 1.6,-6.7 z m 1194,51.9 c -8.7,0 -15.7,-7.1 -15.7,-15.7 0,-8.7 7,-15.8 15.7,-15.8 8.7,0 15.7,7.1 15.7,15.8 0,8.6 -7,15.7 -15.7,15.7 z m 12.2,-15.8 c 0,-7.1 -5.5,-12.9 -12.2,-12.9 -6.8,0 -12.2,5.8 -12.2,12.9 0,7.2 5.4,13 12.2,13 6.7,0 12.2,-5.8 12.2,-13 z m -11.4,-9 c 4.3,0 6.6,1.6 6.6,5.1 q 0,4.7 -4.7,4.7 l 4.7,7.9 h -3.5 l -4.7,-7.9 h -2 v 7.9 h -3.5 v -17.7 z m -3.2,7.9 h 3.2 c 2,0 3.5,-0.4 3.5,-2.8 0,-1.9 -1.9,-2.3 -3.5,-2.3 h -3.2 z" />
  </g>
</svg>
