<?xml version="1.0" encoding="utf-8"?>
<!-- Generator: Adobe Illustrator 26.5.0, SVG Export Plug-In . SVG Version: 6.00 Build 0)  -->
<svg version="1.1" id="Layer_1" xmlns="http://www.w3.org/2000/svg" xmlns:xlink="http://www.w3.org/1999/xlink" x="0px" y="0px"
	 viewBox="0 0 346.35 245.2" style="enable-background:new 0 0 346.35 245.2;" xml:space="preserve">
<style type="text/css">
	.st0{fill:#FFFFFF;}
	.st1{fill-rule:evenodd;clip-rule:evenodd;fill:#000;}
	.st2{fill-rule:evenodd;clip-rule:evenodd;fill:#000;}
	.st3{fill:#000;}
	.st4{fill:#000;}
</style>
<path class="st0" d="M-0.93,304.85c-3.53,0-6.76,1.33-9.21,3.51l0.89,0.7c2.23-1.93,5.14-3.1,8.31-3.1
	c7.02,0,12.74,5.71,12.74,12.74c0,7.02-5.71,12.74-12.74,12.74c-6.84,0-12.43-5.41-12.73-12.18H1.38l-5.83,4.58l0.69,0.88l7.66-6.02
	l-7.66-6.02l-0.69,0.88l5.83,4.58h-16.16c-0.01,0.19-0.02,0.37-0.02,0.56c0,7.64,6.22,13.86,13.86,13.86
	c7.64,0,13.86-6.22,13.86-13.86C12.92,311.07,6.71,304.85-0.93,304.85"/>
<path class="st0" d="M-121.08,611.37c0,0.06,0,0.11,0,0.15c0,0.04-0.01,0.08-0.01,0.1c0,0.03-0.01,0.05-0.02,0.07
	c-0.01,0.02-0.03,0.04-0.05,0.06c-0.02,0.02-0.07,0.05-0.13,0.09c-0.06,0.04-0.13,0.07-0.22,0.11c-0.08,0.03-0.18,0.06-0.28,0.08
	c-0.1,0.02-0.21,0.03-0.33,0.03c-0.24,0-0.46-0.04-0.64-0.11c-0.19-0.07-0.34-0.18-0.47-0.33c-0.13-0.15-0.22-0.32-0.29-0.53
	c-0.06-0.21-0.1-0.45-0.1-0.72c0-0.31,0.04-0.58,0.12-0.8s0.19-0.41,0.32-0.56c0.14-0.15,0.3-0.26,0.49-0.33s0.4-0.11,0.63-0.11
	c0.1,0,0.2,0.01,0.29,0.02c0.09,0.02,0.18,0.04,0.25,0.06c0.08,0.03,0.15,0.06,0.21,0.09c0.06,0.04,0.11,0.07,0.14,0.1
	c0.03,0.03,0.05,0.05,0.06,0.07c0.01,0.02,0.02,0.04,0.03,0.07c0.01,0.03,0.01,0.06,0.01,0.1c0,0.04,0,0.08,0,0.13
	c0,0.04,0,0.09-0.01,0.13c0,0.04-0.01,0.08-0.02,0.12c-0.01,0.04-0.03,0.06-0.05,0.09c-0.02,0.02-0.05,0.03-0.08,0.03
	c-0.04,0-0.08-0.02-0.12-0.05c-0.04-0.03-0.09-0.07-0.15-0.11c-0.06-0.04-0.13-0.07-0.21-0.11c-0.08-0.03-0.19-0.05-0.31-0.05
	c-0.23,0-0.41,0.09-0.53,0.26c-0.13,0.18-0.19,0.44-0.19,0.78c0,0.18,0.01,0.33,0.04,0.46c0.03,0.13,0.07,0.24,0.14,0.33
	c0.06,0.09,0.14,0.15,0.23,0.2c0.09,0.04,0.21,0.06,0.34,0.06c0.12,0,0.22-0.02,0.3-0.05c0.09-0.04,0.16-0.08,0.22-0.12
	c0.06-0.04,0.12-0.08,0.16-0.12c0.04-0.04,0.08-0.05,0.12-0.05c0.02,0,0.03,0.01,0.04,0.02c0.01,0.01,0.02,0.03,0.03,0.06
	c0.01,0.03,0.01,0.07,0.02,0.11C-121.09,611.23-121.08,611.29-121.08,611.37z M-119.35,610.22c0,0.5-0.06,0.94-0.19,1.31
	c-0.13,0.37-0.31,0.68-0.55,0.92c-0.24,0.24-0.54,0.43-0.89,0.55c-0.35,0.12-0.75,0.18-1.21,0.18c-0.46,0-0.86-0.06-1.21-0.18
	c-0.35-0.12-0.64-0.29-0.87-0.52c-0.23-0.23-0.41-0.52-0.53-0.87c-0.12-0.35-0.18-0.75-0.18-1.21c0-0.5,0.06-0.94,0.19-1.31
	c0.13-0.37,0.31-0.68,0.55-0.93c0.24-0.24,0.54-0.43,0.89-0.55s0.75-0.18,1.2-0.18c0.46,0,0.86,0.06,1.21,0.18
	c0.35,0.12,0.64,0.3,0.87,0.53c0.24,0.23,0.41,0.52,0.53,0.87C-119.41,609.36-119.35,609.76-119.35,610.22z M-122.15,612.54
	c0.4,0,0.73-0.06,0.99-0.17c0.26-0.12,0.48-0.28,0.64-0.48c0.16-0.2,0.27-0.44,0.34-0.72c0.07-0.28,0.1-0.58,0.1-0.9
	c0-0.35-0.04-0.67-0.11-0.94c-0.07-0.27-0.19-0.5-0.35-0.69c-0.16-0.19-0.38-0.33-0.65-0.43c-0.27-0.1-0.6-0.15-0.99-0.15
	c-0.36,0-0.67,0.05-0.93,0.15s-0.47,0.25-0.64,0.44c-0.17,0.19-0.29,0.43-0.37,0.71c-0.08,0.28-0.12,0.61-0.12,0.98
	c0,0.37,0.04,0.7,0.12,0.97c0.08,0.28,0.2,0.5,0.37,0.68c0.17,0.18,0.39,0.32,0.65,0.4C-122.85,612.5-122.53,612.54-122.15,612.54z"
	/>
<path class="st0" d="M-112.99,612.65c0,0.08,0,0.14-0.01,0.2c-0.01,0.05-0.02,0.1-0.03,0.14c-0.01,0.03-0.03,0.06-0.05,0.07
	c-0.02,0.01-0.05,0.02-0.07,0.02h-3.01c-0.06,0-0.11-0.01-0.15-0.02c-0.04-0.01-0.08-0.03-0.1-0.06c-0.03-0.03-0.05-0.08-0.06-0.14
	c-0.01-0.06-0.02-0.14-0.02-0.23c0-0.09,0-0.16,0.01-0.23c0.01-0.06,0.02-0.12,0.04-0.17s0.05-0.1,0.08-0.15
	c0.03-0.05,0.08-0.1,0.13-0.16l0.9-0.97c0.18-0.19,0.33-0.36,0.44-0.51c0.11-0.16,0.2-0.3,0.26-0.42c0.06-0.13,0.1-0.25,0.13-0.35
	c0.02-0.11,0.03-0.21,0.03-0.31c0-0.09-0.01-0.17-0.04-0.25c-0.03-0.08-0.07-0.15-0.13-0.21c-0.05-0.06-0.12-0.11-0.21-0.14
	c-0.08-0.03-0.18-0.05-0.29-0.05c-0.16,0-0.3,0.02-0.42,0.06c-0.12,0.04-0.23,0.09-0.32,0.14c-0.09,0.05-0.17,0.1-0.23,0.14
	c-0.06,0.04-0.11,0.06-0.15,0.06c-0.02,0-0.05-0.01-0.06-0.02c-0.02-0.02-0.03-0.04-0.04-0.08c-0.01-0.04-0.02-0.09-0.03-0.15
	c-0.01-0.06-0.01-0.14-0.01-0.23c0-0.06,0-0.11,0.01-0.16c0-0.04,0.01-0.08,0.02-0.11c0.01-0.03,0.02-0.06,0.03-0.08
	c0.01-0.02,0.04-0.05,0.07-0.08c0.03-0.03,0.1-0.07,0.19-0.12c0.09-0.05,0.2-0.1,0.33-0.15c0.13-0.05,0.28-0.09,0.44-0.12
	c0.16-0.03,0.32-0.05,0.5-0.05c0.27,0,0.51,0.03,0.71,0.1c0.2,0.07,0.37,0.16,0.51,0.29c0.13,0.12,0.24,0.27,0.3,0.44
	c0.07,0.17,0.1,0.35,0.1,0.54c0,0.17-0.02,0.34-0.05,0.5c-0.03,0.16-0.1,0.34-0.2,0.53c-0.1,0.19-0.25,0.4-0.43,0.63
	c-0.19,0.23-0.43,0.5-0.74,0.8l-0.61,0.63h2.06c0.03,0,0.05,0.01,0.07,0.02c0.02,0.02,0.04,0.04,0.06,0.07
	c0.02,0.03,0.03,0.08,0.04,0.13C-113,612.51-112.99,612.58-112.99,612.65z"/>
<path class="st0" d="M-109.76,610.51c0-0.25-0.01-0.47-0.02-0.66c-0.01-0.19-0.03-0.35-0.06-0.49c-0.03-0.14-0.06-0.26-0.11-0.36
	s-0.09-0.17-0.15-0.23c-0.06-0.06-0.13-0.1-0.2-0.12c-0.08-0.02-0.16-0.04-0.25-0.04c-0.16,0-0.29,0.04-0.39,0.11
	c-0.1,0.08-0.19,0.19-0.25,0.35c-0.06,0.15-0.1,0.34-0.13,0.57c-0.02,0.23-0.04,0.49-0.04,0.8c0,0.37,0.01,0.68,0.04,0.92
	c0.03,0.24,0.08,0.44,0.14,0.58c0.06,0.14,0.15,0.24,0.24,0.3c0.1,0.06,0.22,0.09,0.36,0.09c0.11,0,0.2-0.02,0.28-0.05
	c0.08-0.03,0.15-0.08,0.21-0.15c0.06-0.07,0.11-0.15,0.15-0.25c0.04-0.1,0.07-0.22,0.1-0.36s0.04-0.29,0.05-0.46
	C-109.77,610.9-109.76,610.71-109.76,610.51z M-108.69,610.45c0,0.42-0.03,0.79-0.1,1.13c-0.07,0.34-0.18,0.62-0.33,0.86
	c-0.15,0.24-0.35,0.42-0.59,0.54c-0.24,0.13-0.54,0.19-0.89,0.19c-0.36,0-0.65-0.06-0.89-0.18c-0.23-0.12-0.42-0.3-0.56-0.53
	c-0.14-0.23-0.23-0.51-0.29-0.84c-0.05-0.33-0.08-0.71-0.08-1.13c0-0.42,0.03-0.79,0.1-1.13c0.07-0.34,0.18-0.63,0.33-0.86
	c0.15-0.24,0.35-0.42,0.59-0.54c0.24-0.13,0.54-0.19,0.89-0.19c0.36,0,0.66,0.06,0.89,0.18c0.23,0.12,0.42,0.3,0.56,0.53
	c0.14,0.23,0.23,0.51,0.29,0.84C-108.72,609.66-108.69,610.03-108.69,610.45z"/>
<path class="st0" d="M-104.65,612.68c0,0.08,0,0.14-0.01,0.19c-0.01,0.05-0.02,0.09-0.03,0.13c-0.01,0.03-0.03,0.05-0.05,0.07
	c-0.02,0.01-0.04,0.02-0.06,0.02h-2.88c-0.02,0-0.04-0.01-0.06-0.02c-0.02-0.01-0.04-0.04-0.05-0.07c-0.01-0.03-0.03-0.07-0.03-0.13
	c-0.01-0.05-0.01-0.12-0.01-0.19c0-0.08,0-0.14,0.01-0.2c0.01-0.05,0.02-0.09,0.03-0.13c0.01-0.03,0.03-0.06,0.05-0.07
	c0.02-0.01,0.04-0.02,0.06-0.02h0.97v-3.4l-0.84,0.46c-0.06,0.03-0.11,0.05-0.15,0.05c-0.04,0.01-0.07,0-0.09-0.02
	c-0.02-0.02-0.04-0.06-0.05-0.12c-0.01-0.06-0.01-0.14-0.01-0.24c0-0.06,0-0.12,0-0.16c0-0.04,0.01-0.08,0.02-0.11
	c0.01-0.03,0.03-0.05,0.04-0.07c0.02-0.02,0.04-0.04,0.08-0.06l1.12-0.73c0.01-0.01,0.03-0.02,0.05-0.03
	c0.02-0.01,0.05-0.01,0.08-0.02c0.03,0,0.07-0.01,0.13-0.01c0.05,0,0.12,0,0.2,0c0.1,0,0.19,0,0.25,0.01c0.06,0,0.11,0.01,0.14,0.02
	s0.05,0.02,0.06,0.04c0.01,0.02,0.02,0.04,0.02,0.06v4.32h0.85c0.02,0,0.05,0.01,0.07,0.02c0.02,0.02,0.04,0.04,0.05,0.07
	s0.03,0.07,0.03,0.13C-104.66,612.54-104.65,612.6-104.65,612.68z"/>
<path class="st0" d="M-100.42,608.31c0,0.08,0,0.15-0.01,0.2c0,0.06-0.01,0.11-0.02,0.16c-0.01,0.05-0.02,0.1-0.04,0.14
	c-0.02,0.04-0.03,0.09-0.06,0.14l-1.72,3.99c-0.02,0.03-0.04,0.06-0.06,0.08s-0.06,0.04-0.11,0.05s-0.1,0.02-0.18,0.02
	s-0.16,0.01-0.26,0.01c-0.14,0-0.26,0-0.34-0.01c-0.08-0.01-0.15-0.02-0.18-0.04c-0.04-0.02-0.06-0.05-0.06-0.08
	c0-0.03,0.01-0.07,0.03-0.12l1.85-4.08h-2.2c-0.06,0-0.1-0.04-0.13-0.11c-0.03-0.07-0.04-0.19-0.04-0.35c0-0.08,0-0.15,0.01-0.21
	c0.01-0.06,0.02-0.11,0.03-0.14c0.01-0.04,0.03-0.06,0.05-0.08c0.02-0.02,0.04-0.02,0.07-0.02h3.11c0.05,0,0.09,0,0.12,0.01
	c0.03,0.01,0.06,0.03,0.08,0.06c0.02,0.03,0.03,0.08,0.04,0.14S-100.42,608.21-100.42,608.31z"/>
<polygon class="st0" points="-96.73,612.98 -95.81,612.98 -94.72,609.83 -93.63,612.98 -92.71,612.98 -91.07,608.13 -92.17,608.13 
	-93.17,611.39 -94.25,608.12 -95.16,608.12 -96.24,611.39 -97.24,608.13 -98.37,608.13 "/>
<path class="st0" d="M-90.34,612.95h1.05v-3.69h-1.05V612.95z M-90.37,608.86h1.1v-0.93h-1.1V608.86z"/>
<path class="st0" d="M-88.32,612.95h1.05v-2.06c0-0.49,0.25-0.75,0.65-0.75s0.63,0.25,0.63,0.75v2.06h1.05v-2.39
	c0-0.85-0.46-1.37-1.25-1.37c-0.53,0-0.84,0.28-1.08,0.59v-0.52h-1.05V612.95z"/>
<path class="st0" d="M-81.66,613.03c0.93,0,1.48-0.33,1.97-0.86l-0.67-0.68c-0.38,0.34-0.72,0.56-1.27,0.56
	c-0.83,0-1.4-0.69-1.4-1.51v-0.01c0-0.83,0.58-1.5,1.4-1.5c0.48,0,0.86,0.21,1.23,0.54l0.67-0.78c-0.45-0.44-0.99-0.74-1.9-0.74
	c-1.48,0-2.51,1.12-2.51,2.49v0.01C-84.13,611.94-83.08,613.03-81.66,613.03z"/>
<path class="st0" d="M-78.95,612.95h1.05v-2.06c0-0.49,0.25-0.75,0.65-0.75s0.63,0.25,0.63,0.75v2.06h1.05v-2.39
	c0-0.85-0.46-1.37-1.25-1.37c-0.53,0-0.84,0.28-1.08,0.59v-1.86h-1.05V612.95z"/>
<path class="st0" d="M-72.85,612.13c-0.58,0-0.97-0.47-0.97-1.02v-0.01c0-0.54,0.36-1,0.96-1c0.58,0,0.97,0.47,0.97,1.02v0.01
	C-71.89,611.67-72.25,612.13-72.85,612.13z M-72.86,613.03c1.15,0,2-0.86,2-1.92v-0.01c0-1.06-0.85-1.9-1.99-1.9
	c-1.15,0-2,0.86-2,1.92v0.01C-74.85,612.18-74,613.03-72.86,613.03z"/>
<path class="st0" d="M-70.05,612.95h1.05v-3.69h-1.05V612.95z M-70.08,608.86h1.1v-0.93h-1.1V608.86z"/>
<path class="st0" d="M-66.28,613.03c0.74,0,1.15-0.28,1.51-0.67l-0.61-0.62c-0.25,0.24-0.5,0.39-0.85,0.39
	c-0.57,0-0.94-0.45-0.94-1.02v-0.01c0-0.54,0.37-1,0.89-1c0.37,0,0.61,0.16,0.84,0.41l0.64-0.69c-0.34-0.39-0.78-0.62-1.47-0.62
	c-1.13,0-1.93,0.87-1.93,1.92v0.01C-68.2,612.18-67.39,613.03-66.28,613.03z"/>
<path class="st0" d="M-63.25,610.82c0.08-0.47,0.36-0.78,0.8-0.78c0.44,0,0.71,0.32,0.78,0.78H-63.25z M-62.35,613.03
	c0.67,0,1.16-0.26,1.51-0.69l-0.6-0.53c-0.29,0.27-0.54,0.38-0.89,0.38c-0.47,0-0.8-0.25-0.9-0.72h2.57
	c0.01-0.1,0.01-0.19,0.01-0.28c0-1.05-0.56-2-1.8-2c-1.07,0-1.82,0.87-1.82,1.92v0.01C-64.27,612.25-63.46,613.03-62.35,613.03z"/>
<path class="st0" d="M-55.7,613.02c1.29,0,2.11-0.71,2.11-2.17v-2.72h-1.06v2.76c0,0.76-0.39,1.16-1.04,1.16
	c-0.65,0-1.04-0.41-1.04-1.19v-2.72h-1.06v2.75C-57.78,612.3-56.99,613.02-55.7,613.02z"/>
<path class="st0" d="M-50.79,613.02c1.04,0,1.77-0.54,1.77-1.49v-0.01c0-0.84-0.55-1.19-1.53-1.44c-0.83-0.21-1.04-0.32-1.04-0.63
	v-0.01c0-0.23,0.21-0.42,0.62-0.42c0.41,0,0.83,0.18,1.25,0.47l0.55-0.8c-0.49-0.39-1.09-0.61-1.79-0.61
	c-0.98,0-1.68,0.58-1.68,1.45v0.01c0,0.96,0.63,1.22,1.6,1.47c0.8,0.21,0.97,0.34,0.97,0.61v0.01c0,0.28-0.26,0.45-0.7,0.45
	c-0.55,0-1-0.23-1.44-0.58l-0.63,0.75C-52.26,612.76-51.52,613.02-50.79,613.02z"/>
<path class="st0" d="M-46.62,610.93l0.64-1.56l0.64,1.56H-46.62z M-48.52,612.95h1.08l0.44-1.08h2.04l0.44,1.08h1.11l-2.06-4.85
	h-0.98L-48.52,612.95z"/>
<path class="st0" d="M41.9,331.49c-6.92,0-11.96-5.68-11.96-12.6v-0.08c0-6.92,4.96-12.52,11.88-12.52c6.92,0,11.96,5.68,11.96,12.6
	v0.08C53.78,325.89,48.82,331.49,41.9,331.49z M41.82,333.37c8.48,0,14.12-6.84,14.12-14.48v-0.08c0-7.64-5.56-14.4-14.04-14.4
	s-14.12,6.84-14.12,14.48v0.08C27.78,326.61,33.34,333.37,41.82,333.37z"/>
<polygon class="st0" points="63.42,332.89 65.42,332.89 65.42,308.01 85.14,332.89 86.7,332.89 86.7,304.89 84.7,304.89 
	84.7,329.25 65.38,304.89 63.42,304.89 "/>
<path class="st0" d="M115.5,325.17v0.08c0,3.52-3.04,5.72-7.84,5.72H97.5v-11.24h9.48C112.5,319.73,115.5,321.73,115.5,325.17z
	 M113.94,312.05c0,3.72-3,5.76-7.2,5.76H97.5v-11h9.44c4.48,0,7,2.08,7,5.16V312.05z M95.42,332.89h12.16
	c6.04,0,10.04-2.96,10.04-7.64v-0.08c0-3.88-2.96-5.8-6.32-6.68c2.28-0.92,4.76-2.84,4.76-6.64v-0.08c0-1.76-0.64-3.24-1.8-4.4
	c-1.56-1.56-4.12-2.48-7.28-2.48H95.42V332.89z"/>
<path class="st0" d="M137.58,331.49c-6.92,0-11.96-5.68-11.96-12.6v-0.08c0-6.92,4.96-12.52,11.88-12.52s11.96,5.68,11.96,12.6v0.08
	C149.46,325.89,144.5,331.49,137.58,331.49z M137.5,333.37c8.48,0,14.12-6.84,14.12-14.48v-0.08c0-7.64-5.56-14.4-14.04-14.4
	s-14.12,6.84-14.12,14.48v0.08C123.46,326.61,129.02,333.37,137.5,333.37z"/>
<path class="st0" d="M163.3,323.17l7.4-16.2l7.36,16.2H163.3z M156.7,332.89h2.16l3.56-7.84h16.52l3.56,7.84h2.28l-13.04-28.2h-2
	L156.7,332.89z"/>
<path class="st0" d="M193.18,319.41v-12.6h9.56c5.08,0,8.04,2.36,8.04,6.12v0.08c0,4.04-3.48,6.4-8.16,6.4H193.18z M191.1,332.89
	h2.08v-11.6h9.16l8.92,11.6h2.64l-9.24-11.96c4.72-0.64,8.2-3.32,8.2-8v-0.08c0-2-0.8-3.88-2.12-5.2c-1.68-1.68-4.44-2.76-7.88-2.76
	H191.1V332.89z"/>
<path class="st0" d="M229.74,306.81c7.8,0,12.72,5.44,12.72,12.08v0.08c0,6.68-4.92,12-12.72,12h-7.24v-24.16H229.74z
	 M220.42,332.89h9.32c8.8,0,14.88-6.12,14.88-14v-0.08c0-7.88-6.08-13.92-14.88-13.92h-9.32V332.89z"/>
<rect x="252.38" y="304.89" class="st0" width="2.08" height="28"/>
<polygon class="st0" points="263.46,332.89 265.46,332.89 265.46,308.01 285.18,332.89 286.74,332.89 286.74,304.89 284.74,304.89 
	284.74,329.25 265.42,304.89 263.46,304.89 "/>
<path class="st0" d="M308.3,333.37c4.56,0,8.48-1.96,11-4.2v-10.8h-11.36v1.92h9.36v8.04c-2.04,1.72-5.36,3.2-8.92,3.2
	c-7.48,0-12-5.4-12-12.64v-0.08c0-6.76,4.76-12.52,11.56-12.52c4.24,0,6.8,1.44,9,3.36l1.36-1.56c-2.8-2.32-5.68-3.68-10.24-3.68
	c-8.36,0-13.84,6.92-13.84,14.48v0.08C294.22,326.85,299.46,333.37,308.3,333.37z"/>
<polygon class="st0" points="339.62,332.89 341.7,332.89 341.7,325.77 348.66,318.73 360.18,332.89 362.9,332.89 350.14,317.25 
	362.38,304.89 359.54,304.89 341.7,323.29 341.7,304.89 339.62,304.89 "/>
<rect x="368.9" y="304.89" class="st0" width="2.08" height="28"/>
<polygon class="st0" points="387.74,332.89 389.82,332.89 389.82,306.81 399.58,306.81 399.58,304.89 377.98,304.89 377.98,306.81 
	387.74,306.81 "/>
<polygon class="st0" points="-123,603.88 -121.65,603.88 -121.65,599 -119.79,599 -119.79,597.76 -124.87,597.76 -124.87,599 
	-123,599 "/>
<path class="st0" d="M-118.9,603.88h1.33v-2.62c0-0.63,0.32-0.95,0.83-0.95s0.81,0.32,0.81,0.95v2.62h1.33v-3.04
	c0-1.08-0.59-1.74-1.59-1.74c-0.67,0-1.07,0.36-1.37,0.75v-2.36h-1.33V603.88z"/>
<path class="st0" d="M-112.37,601.17c0.11-0.6,0.46-1,1.02-1c0.56,0,0.91,0.4,0.99,1H-112.37z M-111.22,603.99
	c0.85,0,1.48-0.33,1.92-0.88l-0.76-0.67c-0.37,0.34-0.69,0.48-1.14,0.48c-0.6,0-1.02-0.32-1.15-0.92h3.27
	c0.01-0.12,0.02-0.25,0.02-0.35c0-1.33-0.72-2.55-2.28-2.55c-1.37,0-2.32,1.1-2.32,2.44v0.02
	C-113.67,603-112.63,603.99-111.22,603.99z"/>
<polygon class="st0" points="-103.69,603.93 -102.52,603.93 -101.13,599.92 -99.75,603.93 -98.58,603.93 -96.48,597.76 
	-97.89,597.76 -99.16,601.91 -100.54,597.74 -101.69,597.74 -103.07,601.91 -104.34,597.76 -105.78,597.76 "/>
<path class="st0" d="M-95.56,603.88h1.33v-4.69h-1.33V603.88z M-95.6,598.68h1.4v-1.18h-1.4V598.68z"/>
<path class="st0" d="M-92.98,603.88h1.33v-2.62c0-0.63,0.32-0.95,0.83-0.95s0.81,0.32,0.81,0.95v2.62h1.33v-3.04
	c0-1.08-0.59-1.74-1.59-1.74c-0.67,0-1.07,0.36-1.37,0.75v-0.67h-1.33V603.88z"/>
<path class="st0" d="M-84.52,603.99c1.18,0,1.88-0.42,2.51-1.09l-0.86-0.87c-0.48,0.44-0.91,0.72-1.61,0.72
	c-1.05,0-1.78-0.88-1.78-1.93v-0.02c0-1.05,0.74-1.91,1.78-1.91c0.61,0,1.09,0.26,1.57,0.69l0.86-0.99
	c-0.57-0.56-1.26-0.95-2.42-0.95c-1.88,0-3.2,1.43-3.2,3.17v0.02C-87.66,602.6-86.32,603.99-84.52,603.99z"/>
<path class="st0" d="M-81.07,603.88h1.33v-2.62c0-0.63,0.32-0.95,0.83-0.95c0.51,0,0.81,0.32,0.81,0.95v2.62h1.33v-3.04
	c0-1.08-0.59-1.74-1.59-1.74c-0.67,0-1.07,0.36-1.37,0.75v-2.36h-1.33V603.88z"/>
<path class="st0" d="M-73.29,602.84c-0.74,0-1.23-0.6-1.23-1.3v-0.02c0-0.69,0.46-1.28,1.22-1.28c0.74,0,1.23,0.6,1.23,1.3v0.02
	C-72.08,602.26-72.53,602.84-73.29,602.84z M-73.31,603.99c1.46,0,2.55-1.09,2.55-2.44v-0.02c0-1.35-1.08-2.43-2.53-2.43
	c-1.46,0-2.55,1.09-2.55,2.44v0.02C-75.84,602.91-74.76,603.99-73.31,603.99z"/>
<path class="st0" d="M-69.74,603.88h1.33v-4.69h-1.33V603.88z M-69.77,598.68h1.4v-1.18h-1.4V598.68z"/>
<path class="st0" d="M-64.94,603.99c0.94,0,1.46-0.36,1.92-0.86l-0.78-0.79c-0.32,0.31-0.63,0.5-1.08,0.5
	c-0.73,0-1.19-0.58-1.19-1.3v-0.02c0-0.69,0.47-1.28,1.14-1.28c0.47,0,0.77,0.2,1.07,0.52l0.81-0.88c-0.44-0.49-0.99-0.79-1.87-0.79
	c-1.44,0-2.46,1.1-2.46,2.44v0.02C-67.38,602.9-66.35,603.99-64.94,603.99z"/>
<path class="st0" d="M-61.08,601.17c0.11-0.6,0.46-1,1.02-1c0.56,0,0.91,0.4,0.99,1H-61.08z M-59.93,603.99
	c0.85,0,1.48-0.33,1.92-0.88l-0.76-0.67c-0.37,0.34-0.69,0.48-1.14,0.48c-0.6,0-1.02-0.32-1.15-0.92h3.27
	c0.01-0.12,0.02-0.25,0.02-0.35c0-1.33-0.72-2.55-2.28-2.55c-1.37,0-2.32,1.1-2.32,2.44v0.02C-62.38,603-61.34,603.99-59.93,603.99z
	"/>
<path class="st0" d="M-51.47,603.98c1.65,0,2.69-0.91,2.69-2.77v-3.46h-1.35v3.51c0,0.97-0.5,1.47-1.32,1.47
	c-0.82,0-1.32-0.52-1.32-1.51v-3.47h-1.35v3.5C-54.12,603.06-53.11,603.98-51.47,603.98z"/>
<path class="st0" d="M-45.23,603.97c1.32,0,2.25-0.68,2.25-1.9v-0.02c0-1.07-0.7-1.51-1.94-1.84c-1.06-0.27-1.32-0.4-1.32-0.81
	v-0.02c0-0.3,0.27-0.53,0.79-0.53c0.52,0,1.05,0.23,1.59,0.6l0.7-1.02c-0.62-0.5-1.38-0.78-2.28-0.78c-1.25,0-2.14,0.74-2.14,1.85
	v0.02c0,1.22,0.8,1.56,2.03,1.87c1.02,0.26,1.23,0.44,1.23,0.78v0.02c0,0.36-0.33,0.58-0.88,0.58c-0.7,0-1.28-0.29-1.83-0.74
	l-0.8,0.95C-47.09,603.65-46.15,603.97-45.23,603.97z"/>
<path class="st0" d="M-39.91,601.32l0.81-1.99l0.81,1.99H-39.91z M-42.33,603.88h1.37l0.56-1.37h2.59l0.56,1.37h1.41l-2.63-6.17
	h-1.24L-42.33,603.88z"/>
<path class="st0" d="M-29.27,602.75c-1.09,0-1.86-0.88-1.86-1.93v-0.02c0-1.05,0.75-1.91,1.84-1.91c1.09,0,1.86,0.88,1.86,1.93v0.02
	C-27.43,601.89-28.18,602.75-29.27,602.75z M-29.28,603.99c1.89,0,3.27-1.43,3.27-3.17v-0.02c0-1.74-1.36-3.15-3.25-3.15
	s-3.27,1.43-3.27,3.17v0.02C-32.53,602.58-31.17,603.99-29.28,603.99z"/>
<path class="st0" d="M-24.96,603.88h1.33v-2.62c0-0.63,0.32-0.95,0.83-0.95s0.81,0.32,0.81,0.95v2.62h1.33v-3.04
	c0-1.08-0.59-1.74-1.59-1.74c-0.67,0-1.07,0.36-1.37,0.75v-0.67h-1.33V603.88z"/>
<path class="st0" d="M-17.05,602.84c-0.62,0-1.14-0.52-1.14-1.3v-0.02c0-0.78,0.52-1.3,1.14-1.3c0.62,0,1.15,0.52,1.15,1.3v0.02
	C-15.91,602.33-16.43,602.84-17.05,602.84z M-16.71,603.97c1.11,0,2.14-0.86,2.14-2.43v-0.02c0-1.57-1.04-2.43-2.14-2.43
	c-0.69,0-1.14,0.32-1.46,0.76v-2.37h-1.33v6.39h1.33v-0.61C-17.86,603.65-17.42,603.97-16.71,603.97z"/>
<path class="st0" d="M-11.27,602.84c-0.74,0-1.23-0.6-1.23-1.3v-0.02c0-0.69,0.46-1.28,1.22-1.28c0.74,0,1.23,0.6,1.23,1.3v0.02
	C-10.06,602.26-10.51,602.84-11.27,602.84z M-11.29,603.99c1.46,0,2.55-1.09,2.55-2.44v-0.02c0-1.35-1.08-2.43-2.53-2.43
	c-1.46,0-2.55,1.09-2.55,2.44v0.02C-13.82,602.91-12.75,603.99-11.29,603.99z"/>
<path class="st0" d="M-6.05,603.05c-0.43,0-0.73-0.21-0.73-0.57v-0.02c0-0.42,0.35-0.65,0.92-0.65c0.32,0,0.62,0.07,0.85,0.18v0.24
	C-5.01,602.71-5.43,603.05-6.05,603.05z M-6.45,603.97c0.65,0,1.09-0.24,1.42-0.6v0.51h1.29v-2.72c0-0.63-0.16-1.15-0.51-1.5
	c-0.33-0.33-0.86-0.53-1.58-0.53c-0.8,0-1.3,0.15-1.82,0.38l0.33,1.02c0.43-0.16,0.79-0.25,1.3-0.25c0.67,0,1.01,0.31,1.01,0.86
	v0.08c-0.33-0.11-0.67-0.19-1.15-0.19c-1.11,0-1.89,0.47-1.89,1.5v0.02C-8.06,603.46-7.33,603.97-6.45,603.97z"/>
<path class="st0" d="M-2.6,603.88h1.33v-1.73c0-1.12,0.54-1.65,1.43-1.65h0.07v-1.39c-0.79-0.04-1.23,0.39-1.5,1.03v-0.95H-2.6
	V603.88z"/>
<path class="st0" d="M3.33,602.84c-0.62,0-1.15-0.52-1.15-1.3v-0.02c0-0.79,0.53-1.3,1.15-1.3c0.62,0,1.14,0.52,1.14,1.3v0.02
	C4.47,602.33,3.95,602.84,3.33,602.84z M2.99,603.97c0.69,0,1.14-0.32,1.46-0.76v0.67h1.33v-6.39H4.45v2.31
	c-0.32-0.38-0.75-0.7-1.46-0.7c-1.11,0-2.14,0.86-2.14,2.43v0.02C0.85,603.11,1.89,603.97,2.99,603.97z"/>
<path class="st0" d="M7.03,603.88h1.33v-4.69H7.03V603.88z M7,598.68h1.4v-1.18H7V598.68z"/>
<path class="st0" d="M9.61,603.88h1.33v-2.62c0-0.63,0.32-0.95,0.83-0.95c0.51,0,0.81,0.32,0.81,0.95v2.62h1.33v-3.04
	c0-1.08-0.59-1.74-1.59-1.74c-0.67,0-1.07,0.36-1.37,0.75v-0.67H9.61V603.88z"/>
<path class="st0" d="M17.33,602.4c-0.65,0-1.14-0.44-1.14-1.09v-0.02c0-0.64,0.49-1.09,1.14-1.09c0.65,0,1.15,0.45,1.15,1.09v0.02
	C18.47,601.95,17.97,602.4,17.33,602.4z M17.17,605.3c0.91,0,1.58-0.19,2.02-0.63c0.39-0.39,0.6-1.01,0.6-1.85v-3.63h-1.33v0.61
	c-0.36-0.39-0.79-0.7-1.51-0.7c-1.08,0-2.08,0.79-2.08,2.19v0.02c0,1.39,0.99,2.19,2.08,2.19c0.71,0,1.14-0.29,1.53-0.76v0.23
	c0,0.84-0.43,1.28-1.34,1.28c-0.62,0-1.1-0.16-1.58-0.43l-0.46,1C15.69,605.13,16.41,605.3,17.17,605.3z"/>
<polygon class="st0" points="23.74,603.88 25.09,603.88 25.09,602.01 25.8,601.28 27.7,603.88 29.32,603.88 26.71,600.36 
	29.21,597.76 27.58,597.76 25.09,600.43 25.09,597.76 23.74,597.76 "/>
<path class="st0" d="M30.06,603.88h1.33v-4.69h-1.33V603.88z M30.02,598.68h1.4v-1.18h-1.4V598.68z"/>
<path class="st0" d="M34.22,603.96c0.45,0,0.77-0.11,1.05-0.27v-1.07c-0.19,0.1-0.41,0.17-0.66,0.17c-0.3,0-0.43-0.15-0.43-0.46v-2
	h1.1v-1.14h-1.1v-1.2h-1.33v1.2H32.3v1.14h0.56v2.22C32.86,603.64,33.41,603.96,34.22,603.96z"/>
<path class="st1" d="M174.47,60.19c0,0,0.01,100.8,0.01,100.8c0,0-45.84-22.52-45.84-22.52V83.78L174.47,60.19z M134.78,112.34
	v21.52l11.61,4.29v-25.8H134.78z M148.83,112.34v26.7l16.23,6l0-32.7H148.83z M165.06,109.91V76.65l-16.23,6.3v26.96H165.06z
	 M146.39,109.91V83.89l-11.61,4.5v21.52H146.39z"/>
<path class="st2" d="M220.21,83.78v54.68c0,0-45.84,22.51-45.84,22.52c0,0,0-100.8,0.01-100.8L220.21,83.78z M201.72,112.34v25.8
	l11.61-4.29v-21.52H201.72z M183.06,112.34l0,32.7l16.23-6v-26.7H183.06z M199.29,109.91V82.95l-16.23-6.3v33.26H199.29z
	 M213.33,109.91V88.39l-11.61-4.5v26.02H213.33z"/>
<polygon class="st2" points="174.69,28.03 233.89,75.58 233.89,85.77 174.69,51.95 "/>
<polygon class="st1" points="174.65,28.03 115.46,75.58 115.46,85.77 174.65,51.95 "/>
<polygon class="st3" points="71.78,186.03 66.91,172.59 69.17,172.59 72.81,183.27 76.78,172.59 78.15,172.59 81.98,183.27 
	85.66,172.59 87.67,172.59 82.8,186.03 81.13,186.03 77.4,175.87 73.55,186.03 "/>
<rect x="90.43" y="175.01" class="st3" width="2.07" height="11.02"/>
<path class="st3" d="M99.33,177.2c0.05,0.32,0.09,0.65,0.11,0.98c0.03,0.33,0.04,0.66,0.04,0.99v6.86h-1.92v-11.04h1.59l8.1,7.21
	c0.24,0.2,0.46,0.43,0.68,0.67c0.22,0.25,0.43,0.53,0.64,0.84c-0.06-0.33-0.1-0.67-0.13-1c-0.03-0.34-0.05-0.69-0.05-1.06v-6.66
	h1.92v11.04h-1.42l-8.27-7.31c-0.29-0.27-0.54-0.53-0.74-0.77C99.68,177.7,99.49,177.46,99.33,177.2"/>
<path class="st3" d="M127.75,174.42h-9.32v9.74h9.32v-3.37l2.25,0.47v1.59c0,1.24-0.22,2.08-0.65,2.52
	c-0.43,0.44-1.26,0.66-2.48,0.66h-7.53c-1.22,0-2.05-0.22-2.49-0.67c-0.44-0.45-0.66-1.28-0.66-2.51v-7.08
	c0-1.23,0.22-2.07,0.66-2.51c0.44-0.44,1.27-0.67,2.49-0.67h7.53c1.22,0,2.05,0.22,2.48,0.66c0.43,0.44,0.65,1.28,0.65,2.52v1.27
	l-2.25,0.42V174.42z"/>
<polygon class="st3" points="134.97,186.03 134.97,175.01 137.06,175.01 137.06,179.44 145.86,179.44 145.86,175.01 147.94,175.01 
	147.94,186.03 145.86,186.03 145.86,181.11 137.06,181.11 137.06,186.03 "/>
<path class="st3" d="M152.78,177.61c0-1.01,0.19-1.7,0.57-2.07c0.38-0.37,1.09-0.55,2.14-0.55h7.98c1.04,0,1.76,0.18,2.14,0.55
	c0.38,0.37,0.57,1.06,0.57,2.07v5.81c0,1.01-0.19,1.7-0.57,2.06c-0.38,0.36-1.09,0.55-2.14,0.55h-7.98c-1.06,0-1.78-0.18-2.15-0.54
	c-0.37-0.36-0.56-1.05-0.56-2.07V177.61z M154.86,184.36h9.22v-7.73h-9.22V184.36z"/>
<rect x="170.97" y="175.01" class="st3" width="2.07" height="11.02"/>
<path class="st3" d="M187.63,176.63h-7.71v7.73h7.71v-2.63l2.09,0.4v1.3c0,1.01-0.19,1.7-0.57,2.06c-0.38,0.36-1.09,0.55-2.14,0.55
	h-6.49c-1.05,0-1.76-0.18-2.13-0.53c-0.37-0.35-0.55-1.04-0.55-2.08v-5.81c0-1.03,0.19-1.72,0.56-2.08
	c0.37-0.36,1.08-0.54,2.12-0.54h6.49c1.05,0,1.77,0.18,2.14,0.55c0.38,0.37,0.57,1.06,0.57,2.07v1.04l-2.09,0.34V176.63z"/>
<polygon class="st3" points="194.15,186.03 194.15,174.99 205.27,174.99 205.27,176.63 196.24,176.63 196.24,179.47 201.68,179.47 
	201.68,181.11 196.24,181.11 196.24,184.41 205.37,184.41 205.37,186.03 "/>
<path class="st4" d="M222.21,172.58v11.57h9.79v-11.57h2.21v10.26c0,1.24-0.22,2.08-0.65,2.52c-0.44,0.44-1.26,0.66-2.47,0.66h-7.97
	c-1.22,0-2.05-0.22-2.49-0.67c-0.44-0.45-0.66-1.29-0.66-2.51v-10.26H222.21z"/>
<path class="st4" d="M252.69,174.42h-9.51v3.75h8.47c1.2,0,2.01,0.22,2.45,0.66c0.44,0.44,0.66,1.28,0.66,2.51v1.51
	c0,1.24-0.22,2.08-0.65,2.52c-0.43,0.44-1.25,0.66-2.47,0.66h-7.85c-1.22,0-2.05-0.22-2.49-0.67c-0.44-0.45-0.66-1.28-0.66-2.51
	v-0.37l2.09-0.48v2.16h10.01v-4.04h-8.45c-1.22,0-2.05-0.22-2.48-0.67c-0.43-0.45-0.65-1.28-0.65-2.51v-1.17
	c0-1.23,0.22-2.07,0.65-2.51c0.43-0.44,1.26-0.67,2.48-0.67h7.16c1.2,0,2.02,0.22,2.47,0.65c0.45,0.44,0.68,1.2,0.68,2.3v0.28
	l-1.92,0.55V174.42z"/>
<path class="st4" d="M258.93,186.03l7.34-13.44h2.4l7.47,13.44h-2.47l-1.72-3.31h-9.09l-1.72,3.31H258.93z M263.81,181.01h7.24
	l-3.63-6.88L263.81,181.01z"/>
<path class="st3" d="M70.46,195h0.59l3.86,8.36h-0.68l-1.05-2.32h-4.89l-1.05,2.32h-0.64L70.46,195z M72.92,200.48l-2.18-4.8
	l-2.19,4.8H72.92z"/>
<polygon class="st3" points="78.03,195.06 78.61,195.06 81.94,199.97 85.27,195.06 85.85,195.06 85.85,203.36 85.23,203.36 
	85.23,196.15 81.95,200.93 81.9,200.93 78.62,196.15 78.62,203.36 78.03,203.36 "/>
<polygon class="st3" points="89.82,195.06 95.72,195.06 95.72,195.63 90.44,195.63 90.44,198.89 95.19,198.89 95.19,199.46 
	90.44,199.46 90.44,202.79 95.78,202.79 95.78,203.36 89.82,203.36 "/>
<path class="st3" d="M99,195.06h3.48c1.02,0,1.84,0.32,2.33,0.82c0.39,0.39,0.63,0.95,0.63,1.54v0.02c0,1.39-1.03,2.18-2.43,2.37
	l2.74,3.54h-0.78l-2.64-3.44h-2.71v3.44H99V195.06z M102.42,199.36c1.39,0,2.42-0.7,2.42-1.9v-0.02c0-1.11-0.88-1.81-2.38-1.81
	h-2.83v3.73H102.42z"/>
<rect x="109.03" y="195.06" class="st3" width="0.62" height="8.3"/>
<path class="st3" d="M113.23,199.23v-0.02c0-2.35,1.75-4.29,4.15-4.29c1.48,0,2.37,0.55,3.22,1.33l-0.44,0.45
	c-0.72-0.7-1.55-1.22-2.8-1.22c-1.99,0-3.5,1.62-3.5,3.71v0.02c0,2.1,1.53,3.73,3.51,3.73c1.2,0,2.01-0.46,2.86-1.29l0.41,0.4
	c-0.88,0.86-1.82,1.45-3.29,1.45C114.99,203.5,113.23,201.61,113.23,199.23"/>
<path class="st3" d="M127,195h0.59l3.86,8.36h-0.68l-1.05-2.32h-4.89l-1.05,2.32h-0.64L127,195z M129.47,200.48l-2.18-4.8l-2.19,4.8
	H129.47z"/>
<path class="st3" d="M133,197.04c0.51-0.26,0.7-0.52,0.66-0.97h-0.32v-1.01h0.78v0.88c0,0.74-0.27,1.13-0.98,1.4L133,197.04z"/>
<path class="st3" d="M137.28,202.15l0.4-0.46c0.91,0.84,1.75,1.23,2.97,1.23c1.24,0,2.1-0.7,2.1-1.65v-0.02
	c0-0.88-0.46-1.39-2.35-1.77c-1.99-0.4-2.8-1.08-2.8-2.33v-0.02c0-1.23,1.13-2.18,2.67-2.18c1.21,0,2,0.33,2.85,1.01l-0.39,0.49
	c-0.78-0.68-1.56-0.94-2.48-0.94c-1.22,0-2.03,0.7-2.03,1.56v0.02c0,0.88,0.45,1.41,2.42,1.81c1.92,0.39,2.73,1.08,2.73,2.29v0.02
	c0,1.34-1.15,2.26-2.75,2.26C139.29,203.47,138.27,203.04,137.28,202.15"/>
<polygon class="st3" points="151.1,195.06 151.79,195.06 154.4,202.44 156.83,195.04 157.3,195.04 159.73,202.44 162.34,195.06 
	162.98,195.06 159.97,203.41 159.47,203.41 157.04,196.21 154.61,203.41 154.11,203.41 "/>
<rect x="166.18" y="195.06" class="st3" width="0.62" height="8.3"/>
<polygon class="st3" points="170.79,195.06 171.37,195.06 177.09,202.28 177.09,195.06 177.68,195.06 177.68,203.36 177.22,203.36 
	171.38,195.98 171.38,203.36 170.79,203.36 "/>
<path class="st3" d="M181.65,195.06h2.76c2.61,0,4.41,1.79,4.41,4.12v0.02c0,2.33-1.8,4.15-4.41,4.15h-2.76V195.06z M182.27,195.63
	v7.16h2.15c2.31,0,3.77-1.58,3.77-3.56v-0.02c0-1.97-1.46-3.58-3.77-3.58H182.27z"/>
<path class="st3" d="M191.92,199.23v-0.02c0-2.26,1.67-4.29,4.18-4.29c2.51,0,4.16,2,4.16,4.27v0.02c0,2.26-1.67,4.29-4.18,4.29
	C193.57,203.5,191.92,201.49,191.92,199.23 M199.63,199.23v-0.02c0-2.05-1.49-3.73-3.54-3.73c-2.05,0-3.52,1.66-3.52,3.71v0.02
	c0,2.05,1.49,3.73,3.54,3.73C198.16,202.94,199.63,201.28,199.63,199.23"/>
<polygon class="st3" points="202.73,195.06 203.42,195.06 206.03,202.44 208.46,195.04 208.93,195.04 211.36,202.44 213.97,195.06 
	214.61,195.06 211.6,203.41 211.1,203.41 208.67,196.21 206.24,203.41 205.74,203.41 "/>
<path class="st3" d="M222.42,199.23v-0.02c0-2.35,1.75-4.29,4.15-4.29c1.48,0,2.37,0.55,3.22,1.33l-0.44,0.45
	c-0.72-0.7-1.55-1.22-2.8-1.22c-1.99,0-3.5,1.62-3.5,3.71v0.02c0,2.1,1.53,3.73,3.51,3.73c1.2,0,2.01-0.46,2.86-1.29l0.41,0.4
	c-0.88,0.86-1.82,1.45-3.29,1.45C224.17,203.5,222.42,201.61,222.42,199.23"/>
<polygon class="st3" points="232.98,195.06 233.6,195.06 233.6,198.9 238.91,198.9 238.91,195.06 239.52,195.06 239.52,203.36 
	238.91,203.36 238.91,199.47 233.6,199.47 233.6,203.36 232.98,203.36 "/>
<path class="st3" d="M243.07,199.23v-0.02c0-2.26,1.67-4.29,4.18-4.29c2.51,0,4.16,2,4.16,4.27v0.02c0,2.26-1.67,4.29-4.18,4.29
	C244.71,203.5,243.07,201.49,243.07,199.23 M250.77,199.23v-0.02c0-2.05-1.49-3.73-3.54-3.73c-2.05,0-3.52,1.66-3.52,3.71v0.02
	c0,2.05,1.49,3.73,3.54,3.73C249.3,202.94,250.77,201.28,250.77,199.23"/>
<rect x="255.02" y="195.06" class="st3" width="0.62" height="8.3"/>
<path class="st3" d="M259.22,199.23v-0.02c0-2.35,1.75-4.29,4.15-4.29c1.48,0,2.37,0.55,3.22,1.33l-0.44,0.45
	c-0.72-0.7-1.55-1.22-2.8-1.22c-1.99,0-3.5,1.62-3.5,3.71v0.02c0,2.1,1.53,3.73,3.51,3.73c1.2,0,2.01-0.46,2.86-1.29l0.41,0.4
	c-0.88,0.86-1.82,1.45-3.29,1.45C260.97,203.5,259.22,201.61,259.22,199.23"/>
<polygon class="st3" points="269.79,195.06 275.69,195.06 275.69,195.63 270.4,195.63 270.4,198.89 275.15,198.89 275.15,199.46 
	270.4,199.46 270.4,202.79 275.75,202.79 275.75,203.36 269.79,203.36 "/>
<path class="st3" d="M276.11,175.33l0.41-0.04c0.02,0.16,0.06,0.3,0.13,0.4c0.07,0.11,0.18,0.19,0.33,0.25
	c0.15,0.06,0.31,0.1,0.5,0.1c0.16,0,0.31-0.02,0.44-0.07c0.13-0.05,0.22-0.12,0.28-0.2c0.06-0.09,0.09-0.18,0.09-0.28
	c0-0.1-0.03-0.19-0.09-0.27c-0.06-0.08-0.16-0.14-0.29-0.19c-0.09-0.03-0.28-0.09-0.58-0.16c-0.3-0.07-0.51-0.14-0.63-0.2
	c-0.16-0.08-0.27-0.18-0.35-0.3c-0.08-0.12-0.11-0.26-0.11-0.41c0-0.16,0.05-0.32,0.14-0.46c0.09-0.14,0.23-0.25,0.41-0.33
	c0.18-0.07,0.38-0.11,0.6-0.11c0.24,0,0.45,0.04,0.64,0.12c0.18,0.08,0.33,0.19,0.43,0.34c0.1,0.15,0.15,0.32,0.16,0.51l-0.41,0.03
	c-0.02-0.21-0.1-0.36-0.23-0.47c-0.13-0.11-0.32-0.16-0.57-0.16c-0.26,0-0.45,0.05-0.57,0.14c-0.12,0.1-0.18,0.21-0.18,0.35
	c0,0.12,0.04,0.21,0.13,0.29c0.08,0.08,0.3,0.15,0.65,0.23c0.35,0.08,0.59,0.15,0.72,0.21c0.19,0.09,0.33,0.2,0.42,0.33
	s0.14,0.29,0.14,0.46c0,0.17-0.05,0.34-0.15,0.49c-0.1,0.15-0.24,0.27-0.43,0.36c-0.19,0.08-0.39,0.13-0.63,0.13
	c-0.29,0-0.54-0.04-0.74-0.13c-0.2-0.09-0.36-0.22-0.47-0.39C276.18,175.74,276.12,175.55,276.11,175.33z"/>
<path class="st3" d="M279.28,176.38v-3.26h0.65l0.77,2.31c0.07,0.21,0.12,0.38,0.16,0.48c0.04-0.12,0.1-0.29,0.18-0.52l0.79-2.27
	h0.57v3.26h-0.41v-2.73l-0.95,2.73h-0.39l-0.94-2.78v2.78H279.28z"/>
</svg>
